<?xml version="1.0" encoding="UTF-8" standalone="no"?>
<!-- Created with Inkscape (http://www.inkscape.org/) -->

<svg
   width="200cm"
   height="150cm"
   viewBox="0 0 2000 1500"
   version="1.1"
   id="svg5"
   xml:space="preserve"
   inkscape:version="1.2.1 (9c6d41e410, 2022-07-14)"
   sodipodi:docname="LogoOMRCHVector.svg"
   xmlns:inkscape="http://www.inkscape.org/namespaces/inkscape"
   xmlns:sodipodi="http://sodipodi.sourceforge.net/DTD/sodipodi-0.dtd"
   xmlns="http://www.w3.org/2000/svg"
   xmlns:svg="http://www.w3.org/2000/svg"><sodipodi:namedview
     id="namedview7"
     pagecolor="#ffffff"
     bordercolor="#000000"
     borderopacity="0.25"
     inkscape:showpageshadow="2"
     inkscape:pageopacity="0.0"
     inkscape:pagecheckerboard="0"
     inkscape:deskcolor="#d1d1d1"
     inkscape:document-units="mm"
     showgrid="false"
     inkscape:zoom="0.18641099"
     inkscape:cx="3275.0216"
     inkscape:cy="2451.5723"
     inkscape:window-width="1920"
     inkscape:window-height="1017"
     inkscape:window-x="1592"
     inkscape:window-y="-8"
     inkscape:window-maximized="1"
     inkscape:current-layer="layer1" /><defs
     id="defs2"><rect
       x="1810.5156"
       y="1762.2352"
       width="295.04699"
       height="214.57963"
       id="rect27745" /></defs><g
     inkscape:label="Capa 1"
     inkscape:groupmode="layer"
     id="layer1"><path
       id="path1022"
       style="display:inline;fill:#230d57;fill-opacity:1;stroke-width:0.264999;stroke-dasharray:none"
       inkscape:label="Admiracion"
       d="M 344.13455 369.2064 L 204.44954 416.15651 L 327.37227 740.45248 L 385.27829 723.35016 L 344.13455 369.2064 z M 320.73805 393.97078 L 360.52166 713.34974 L 341.92848 713.94247 L 229.90225 425.28825 L 320.73805 393.97078 z M 370.45129 754.38703 C 339.48787 754.38711 314.3871 777.74044 314.38701 806.54819 C 314.38684 835.35611 339.48768 858.70978 370.45129 858.70986 C 401.41508 858.71002 426.51677 835.35628 426.5166 806.54819 C 426.51651 777.74027 401.41489 754.38687 370.45129 754.38703 z M 366.51148 775.09377 C 386.05719 775.8466 398.19213 792.21318 399.63762 805.41699 C 401.39387 821.4595 397.59857 833.98354 376.04578 834.98728 C 353.99116 835.7399 343.67267 816.44124 343.67256 803.15873 C 343.67241 789.87603 344.70758 776.85024 366.51148 775.09377 z " /><g
       id="g30204"
       inkscape:label="Simbolos"><text
         xml:space="preserve"
         style="font-style:normal;font-variant:normal;font-weight:normal;font-stretch:normal;font-size:70.5556px;font-family:'Comic Sans MS';-inkscape-font-specification:'Comic Sans MS, Normal';font-variant-ligatures:normal;font-variant-caps:normal;font-variant-numeric:normal;font-variant-east-asian:normal;fill:#000000;fill-opacity:1;fill-rule:evenodd;stroke:#ec0a62;stroke-width:0;stroke-linecap:round;stroke-linejoin:round;stroke-dasharray:none;stroke-opacity:1"
         x="632.32404"
         y="598.6911"
         id="text27751"><tspan
           sodipodi:role="line"
           id="tspan27749"
           style="font-style:normal;font-variant:normal;font-weight:normal;font-stretch:normal;font-size:70.5556px;font-family:'Comic Sans MS';-inkscape-font-specification:'Comic Sans MS, Normal';font-variant-ligatures:normal;font-variant-caps:normal;font-variant-numeric:normal;font-variant-east-asian:normal;fill:#000000;fill-opacity:1;stroke:none;stroke-width:0;stroke-dasharray:none;stroke-opacity:1"
           x="632.32404"
           y="598.6911">÷</tspan></text><text
         xml:space="preserve"
         style="font-style:normal;font-variant:normal;font-weight:normal;font-stretch:normal;font-size:70.5556px;font-family:'Comic Sans MS';-inkscape-font-specification:'Comic Sans MS, Normal';font-variant-ligatures:normal;font-variant-caps:normal;font-variant-numeric:normal;font-variant-east-asian:normal;fill:#000000;fill-opacity:1;fill-rule:evenodd;stroke:#ec0a62;stroke-width:0;stroke-linecap:round;stroke-linejoin:round;stroke-dasharray:none;stroke-opacity:1"
         x="449.86417"
         y="594.53424"
         id="text27751-3"><tspan
           sodipodi:role="line"
           id="tspan30190"
           x="449.86417"
           y="594.53424">π</tspan></text><text
         xml:space="preserve"
         style="font-style:normal;font-variant:normal;font-weight:normal;font-stretch:normal;font-size:70.5556px;font-family:'Comic Sans MS';-inkscape-font-specification:'Comic Sans MS, Normal';font-variant-ligatures:normal;font-variant-caps:normal;font-variant-numeric:normal;font-variant-east-asian:normal;fill:#000000;fill-opacity:1;fill-rule:evenodd;stroke:#ec0a62;stroke-width:0;stroke-linecap:round;stroke-linejoin:round;stroke-dasharray:none;stroke-opacity:1"
         x="541.19501"
         y="533.31244"
         id="text27751-2"><tspan
           sodipodi:role="line"
           id="tspan29823"
           x="541.19501"
           y="533.31244">=</tspan></text><text
         xml:space="preserve"
         style="font-style:normal;font-variant:normal;font-weight:normal;font-stretch:normal;font-size:70.5556px;font-family:'Comic Sans MS';-inkscape-font-specification:'Comic Sans MS, Normal';font-variant-ligatures:normal;font-variant-caps:normal;font-variant-numeric:normal;font-variant-east-asian:normal;fill:#000000;fill-opacity:1;fill-rule:evenodd;stroke:#ec0a62;stroke-width:0;stroke-linecap:round;stroke-linejoin:round;stroke-dasharray:none;stroke-opacity:1"
         x="631.52222"
         y="534.3161"
         id="text27751-8"><tspan
           sodipodi:role="line"
           id="tspan30188"
           x="631.52222"
           y="534.3161">+</tspan></text><text
         xml:space="preserve"
         style="font-style:normal;font-variant:normal;font-weight:normal;font-stretch:normal;font-size:70.5556px;font-family:'Comic Sans MS';-inkscape-font-specification:'Comic Sans MS, Normal';font-variant-ligatures:normal;font-variant-caps:normal;font-variant-numeric:normal;font-variant-east-asian:normal;fill:#000000;fill-opacity:1;fill-rule:evenodd;stroke:#ec0a62;stroke-width:0;stroke-linecap:round;stroke-linejoin:round;stroke-dasharray:none;stroke-opacity:1"
         x="450.8678"
         y="533.3125"
         id="text27751-5"><tspan
           sodipodi:role="line"
           id="tspan29095"
           x="450.8678"
           y="533.3125">−</tspan></text><text
         xml:space="preserve"
         style="font-style:normal;font-variant:normal;font-weight:normal;font-stretch:normal;font-size:81.13888889px;font-family:'Comic Sans MS';-inkscape-font-specification:'Comic Sans MS, Normal';font-variant-ligatures:normal;font-variant-caps:normal;font-variant-numeric:normal;font-variant-east-asian:normal;fill:#000000;fill-opacity:1;fill-rule:evenodd;stroke:#ec0a62;stroke-width:0;stroke-linecap:round;stroke-linejoin:round;stroke-dasharray:none;stroke-opacity:1"
         x="543.70178"
         y="468.07617"
         id="text27751-28"><tspan
           sodipodi:role="line"
           id="tspan28730"
           x="543.70178"
           y="468.07617">×</tspan></text></g><g
       id="g27689"
       inkscape:label="Foco"><path
         id="rect2694"
         style="display:inline;fill:#000000;fill-opacity:1;stroke-width:0.254428;stroke-dasharray:none"
         inkscape:label="FocoAbajo01"
         d="M 499.81032 784.5919 C 493.97218 784.5919 489.27246 789.29214 489.27246 795.13028 C 489.27246 800.96842 493.97218 805.66814 499.81032 805.66814 L 637.05776 805.66814 C 642.8959 805.66814 647.59561 800.96842 647.59561 795.13028 C 647.59561 789.29214 642.8959 784.5919 637.05776 784.5919 L 499.81032 784.5919 z M 500.18704 810.93758 C 494.3489 810.93758 489.64867 815.6373 489.64867 821.47544 C 489.64867 827.31358 494.3489 832.01381 500.18704 832.01381 L 637.43396 832.01381 C 643.2721 832.01381 647.97233 827.31358 647.97233 821.47544 C 647.97233 815.6373 643.2721 810.93758 637.43396 810.93758 L 500.18704 810.93758 z M 499.41913 838.37415 C 493.58099 838.37415 488.88127 843.07438 488.88127 848.91252 C 488.88127 854.75067 493.58099 859.45038 499.41913 859.45038 L 636.66656 859.45038 C 642.50471 859.45038 647.20442 854.75067 647.20442 848.91252 C 647.20442 843.07438 642.50471 838.37415 636.66656 838.37415 L 499.41913 838.37415 z M 567.26977 865.04332 C 537.36709 865.04344 507.28484 865.05759 506.5665 865.11464 C 506.5665 865.11464 508.26174 883.67495 567.71573 883.25461 C 627.16973 882.83427 626.89559 865.05728 626.89559 865.05728 C 626.89559 865.05728 597.17244 865.04321 567.26977 865.04332 z " /><path
         id="path3566-8-1"
         style="fill:#e4e152;fill-opacity:1;stroke-width:0.298;stroke-dasharray:none"
         d="m 559.44453,337.17604 c -2.27525,0.007 -4.49486,0.0762 -6.65024,0.21136 -31.90061,2.00051 -44.78644,2.39855 -67.34059,10.98279 -22.55414,8.58424 -48.959,21.82667 -67.62017,42.4801 -18.66116,20.65344 -37.11746,42.57803 -38.35476,85.46765 -0.87982,30.4979 -6.06456,43.88788 12.72366,91.11122 13.35817,33.5752 41.61577,81.25038 64.58561,117.88542 13.31398,21.23472 18.99427,86.1169 18.99427,86.1169 l 146.62895,2.02567 c 0,0 1.69049,-22.68825 5.66836,-37.4238 3.97785,-14.73554 9.65348,-33.88673 19.91248,-51.14881 8.30092,-13.96738 14.8757,-29.47391 23.6978,-43.14317 18.11635,-28.0701 37.61838,-59.17549 44.9506,-91.44489 8.77513,-38.61967 10.15568,-79.851 -0.97575,-112.03724 -8.15131,-23.56933 -23.56702,-47.40079 -44.32893,-61.33024 -31.94949,-21.43536 -77.76261,-39.85114 -111.89129,-39.75296 z m -0.19224,18.4857 c 29.72247,-0.089 57.67799,9.35936 87.17202,26.14518 19.98623,11.37468 34.83089,33.3435 45.74953,53.01159 6.75997,12.17694 13.83658,39.69574 14.19853,56.1671 0.30637,13.94228 -3.57876,36.7744 -9.99013,55.81883 -9.17127,27.24246 -21.45998,52.02843 -37.7745,77.12896 -6.79421,10.45316 -18.05768,30.26474 -25.2869,42.9242 -8.93451,15.64564 -17.81438,32.88171 -21.27868,46.2374 -3.46429,13.35569 -5.89914,37.74441 -5.89914,37.74441 l -108.80734,2.31608 c 0,0 -11.74134,-63.71815 -22.35367,-79.61384 -21.70747,-32.51457 -53.34251,-85.22322 -62.6903,-110.12845 -16.10187,-42.90004 -10.53613,-53.99722 -9.7699,-81.63926 1.07756,-38.87338 17.15072,-58.74459 33.40261,-77.46401 16.25189,-18.71942 39.24768,-30.72216 58.88995,-38.50256 19.64228,-7.7804 30.86449,-8.14073 58.64655,-9.95391 1.87711,-0.12251 3.80988,-0.18579 5.79137,-0.19172 z"
         sodipodi:nodetypes="sssssssccsssssssssssssssccsssssss"
         inkscape:label="FocoSonmbraAmarilla" /><path
         id="path3566-8"
         style="fill:#000000;fill-opacity:1;stroke-width:0.298272;stroke-dasharray:none"
         d="m 571.79559,336.81768 c -2.27525,0.007 -4.49486,0.0762 -6.65024,0.21136 -31.90061,2.00051 -44.78644,2.39855 -67.34059,10.98279 -22.55414,8.58424 -48.959,21.82667 -67.62017,42.4801 -18.66116,20.65344 -37.11746,42.57803 -38.35476,85.46765 -0.87982,30.4979 -6.06456,43.88788 12.72366,91.11122 13.35817,33.5752 41.61577,81.25038 64.58561,117.88542 13.31398,21.23472 18.99427,86.1169 18.99427,86.1169 l 146.62895,2.02567 c 0,0 1.69049,-22.68825 5.66836,-37.4238 3.97785,-14.73554 9.65348,-33.88673 19.91248,-51.14881 8.30092,-13.96738 14.8757,-29.47391 23.6978,-43.14317 18.11635,-28.0701 37.61838,-59.17549 44.9506,-91.44489 8.77513,-38.61967 10.15568,-79.851 -0.97575,-112.03724 -8.15131,-23.56933 -23.56702,-47.40079 -44.32893,-61.33024 -31.94949,-21.43536 -77.76261,-39.85114 -111.89129,-39.75296 z m -0.19224,18.4857 c 29.72247,-0.089 57.67799,9.35936 87.17202,26.14518 19.98623,11.37468 34.83089,33.3435 45.74953,53.01159 6.75997,12.17694 13.83658,39.69574 14.19853,56.1671 0.30637,13.94228 -3.57876,36.7744 -9.99013,55.81883 -9.17127,27.24246 -21.45998,52.02843 -37.7745,77.12896 -6.79421,10.45316 -18.05768,30.26474 -25.2869,42.9242 -8.93451,15.64564 -17.81438,32.88171 -21.27868,46.2374 -3.46429,13.35569 -5.89914,37.74441 -5.89914,37.74441 l -108.80734,2.31608 c 0,0 -11.74134,-63.71815 -22.35367,-79.61384 -21.70747,-32.51457 -53.34251,-85.22322 -62.6903,-110.12845 -16.10187,-42.90004 -10.53613,-53.99722 -9.7699,-81.63926 1.07756,-38.87338 17.15072,-58.74459 33.40261,-77.46401 16.25189,-18.71942 39.24768,-30.72216 58.88995,-38.50256 19.64228,-7.7804 30.86449,-8.14073 58.64655,-9.95391 1.87711,-0.12251 3.80988,-0.18579 5.79137,-0.19172 z"
         sodipodi:nodetypes="sssssssccsssssssssssssssccsssssss"
         inkscape:label="FocoArriba" /><path
         style="display:inline;fill:none;fill-opacity:0.020351;stroke:#000000;stroke-width:4;stroke-dasharray:none;stroke-opacity:1"
         d="m 546.08542,754.58055 c 0,0 -15.27636,-28.78412 -20.26722,-44.20728 -3.8317,-11.84104 -6.31913,-24.21248 -7.27324,-36.62142 -1.02422,-13.3208 -1.14905,-26.99255 1.70606,-40.04403 3.09275,-14.13778 6.42863,-29.7285 16.43213,-40.18661 2.46112,-2.57297 6.14461,-4.70851 9.69765,-4.47786 4.30688,0.27959 8.7447,3.19502 10.95476,6.90218 9.59383,16.09274 19.34186,40.72484 19.84638,62.61357 0.37335,16.19792 -8.50224,38.90639 -12.53614,46.96227 -1.92259,3.8395 -14.42527,-30.59024 -15.23032,-47.05751 -0.72187,-14.7657 3.36029,-33.94683 9.47561,-43.32593 1.35036,-2.07105 10.74193,-27.72091 21.94801,-25.98946 23.83396,3.68259 25.84311,42.75205 27.8206,66.78762 1.37913,16.7628 -5.52336,46.06306 -11.83335,68.28573 -2.91013,10.24896 -13.70961,30.84227 -11.907,29.66165"
         id="path5280"
         sodipodi:nodetypes="caaaaasasasasac"
         inkscape:label="Alambrito" /><path
         id="rect7361-5-7-1-6-3"
         style="display:inline;fill:#e4e152;fill-rule:evenodd;stroke-width:3.48931"
         inkscape:label="LuzSombra"
         transform="matrix(-0.56977923,0.82179782,-0.80908517,-0.58769139,0,0)"
         d="m -189.80683,-764.52557 h 61.96332 c 3.04644,0 5.49898,2.45254 5.49898,5.49898 0,3.04644 -2.45254,5.49898 -5.49898,5.49898 h -61.96332 c -3.04644,0 -5.49899,-2.45254 -5.49899,-5.49898 0,-3.04644 2.45255,-5.49898 5.49899,-5.49898 z m 14.19087,84.81167 58.44651,-19.33441 c 2.87353,-0.95058 5.95215,0.63112 6.90273,3.5464 0.95058,2.9153 -0.5975,6.02753 -3.47104,6.97811 l -58.44651,19.33441 c -2.87353,0.95058 -5.95215,-0.63112 -6.90273,-3.54641 -0.95058,-2.91528 0.5975,-6.02752 3.47104,-6.9781 z m 38.87528,77.54239 50.829732,-34.33833 c 2.499055,-1.68825 5.870064,-0.97581 7.558315,1.59741 1.688246,2.5732 1.035505,6.00391 -1.46355,7.69216 l -50.829727,34.33833 c -2.49906,1.68825 -5.87006,0.9758 -7.5583,-1.5974 -1.68826,-2.57322 -1.03552,-6.00392 1.46353,-7.69217 z m 61.82692,60.67035 37.08307,-48.83391 c 1.823197,-2.40093 5.223849,-2.78113 7.624771,-0.85247 2.40093,1.92866 2.866036,5.41422 1.042839,7.81515 l -37.08307,48.83391 c -1.823198,2.40093 -5.223844,2.78112 -7.624773,0.85246 -2.400922,-1.92866 -2.866034,-5.41421 -1.042837,-7.81514 z m 75.9798862,45.21307 21.6991458,-57.56502 c 1.06684,-2.83019 4.204168,-4.1497 7.034364,-2.95853 2.830187,1.19116 4.249782,4.42857 3.182943,7.25876 l -21.699146,57.56502 c -1.06684,2.83019 -4.2041682,4.14969 -7.034355,2.95853 -2.8301961,-1.19116 -4.24979132903,-4.42858 -3.1829518,-7.25876 z" /><path
         id="rect7361-5-7-1-6"
         style="fill-opacity:0.927928;stroke-width:3.48931"
         inkscape:label="Luz"
         transform="matrix(-0.56977922,0.82179781,-0.80908518,-0.58769139,0,0)"
         d="m -192.07383,-769.98712 h 61.96332 c 3.04644,0 5.49898,2.45254 5.49898,5.49898 0,3.04644 -2.45254,5.49898 -5.49898,5.49898 h -61.96332 c -3.04644,0 -5.49898,-2.45254 -5.49898,-5.49898 0,-3.04644 2.45254,-5.49898 5.49898,-5.49898 z m 14.85131,85.68701 58.44651,-19.33441 c 2.87354,-0.95058 5.95215,0.63112 6.90273,3.54641 0.95058,2.91529 -0.5975,6.02752 -3.47103,6.9781 l -58.44652,19.33441 c -2.87353,0.95058 -5.95215,-0.63112 -6.90273,-3.54641 -0.95057,-2.91528 0.59751,-6.02752 3.47104,-6.9781 z m 36.27684,76.73061 50.829726,-34.33832 c 2.499054,-1.68825 5.870063,-0.97581 7.558309,1.5974 1.688251,2.57321 1.035511,6.00392 -1.463544,7.69217 l -50.829731,34.33833 c -2.49905,1.68825 -5.87006,0.9758 -7.55831,-1.59741 -1.68824,-2.57321 -1.0355,-6.00392 1.46355,-7.69217 z m 61.445256,63.03898 37.083076,-48.83392 c 1.823192,-2.40092 5.223844,-2.78112 7.624773,-0.85246 2.400922,1.92866 2.866028,5.41422 1.042837,7.81514 l -37.083076,48.83392 c -1.823191,2.40092 -5.223843,2.78112 -7.624765,0.85246 -2.40093,-1.92866 -2.866036,-5.41422 -1.042845,-7.81514 z m 74.0212451,45.73737 21.6991429,-57.56501 c 1.066843,-2.8302 4.204168,-4.1497 7.034364,-2.95853 2.830187,1.19116 4.249786,4.42856 3.182943,7.25876 l -21.6991431,57.56501 c -1.0668431,2.83019 -4.20416818,4.14969 -7.034355,2.95853 -2.8301961,-1.19116 -4.2497948,-4.42857 -3.1829518,-7.25876 z" /></g><path
       style="fill:none;fill-opacity:1;fill-rule:evenodd;stroke:#ef8a28;stroke-width:30;stroke-linecap:round;stroke-linejoin:round;stroke-dasharray:none;stroke-opacity:1"
       d="m 777.64695,800.35971 1.52386,-406.33793 156.19346,149.72468 158.73323,-156.82369 0.7619,420.21327"
       id="path20358"
       inkscape:label="LetraM"
       sodipodi:nodetypes="ccccc" /><path
       style="fill:none;fill-opacity:1;fill-rule:evenodd;stroke:#14b156;stroke-width:30;stroke-linecap:round;stroke-linejoin:round;stroke-dasharray:none;stroke-opacity:1"
       d="m 1164.5806,801.93548 0.7097,-415.87096 c 0,0 141.0328,-12.39722 145.2749,71.90194 3.6851,73.2296 -124.4242,134.21306 -124.4242,134.21306 0,0 100.6028,1.79821 138.1243,27.35474 27.8656,18.97972 35.2326,58.5708 45.0014,90.83984 9.4061,31.07125 8.2171,87.30331 8.2171,87.30331"
       id="path23265"
       sodipodi:nodetypes="ccscssc"
       inkscape:label="LetraR" /><path
       style="fill:none;fill-opacity:1;fill-rule:evenodd;stroke:#7c82e7;stroke-width:30;stroke-linecap:round;stroke-linejoin:round;stroke-dasharray:none;stroke-opacity:1"
       d="m 1574.8801,385.75916 c 0,0 -176.3389,7.6081 -174.5577,220.75545 1.901,227.47984 236.6946,207.50052 226.2784,197.71015"
       id="path26249"
       sodipodi:nodetypes="csc"
       inkscape:label="LetraC" /><path
       id="path27390"
       style="fill:none;fill-opacity:1;fill-rule:evenodd;stroke:#ec0a62;stroke-width:30;stroke-linecap:round;stroke-linejoin:round;stroke-dasharray:none;stroke-opacity:1"
       d="m 1682.5044,595.6905 c 0,0 37.0617,-31.3331 83.8111,-33.88167 23.8461,-1.29998 49.5542,16.29106 65.2711,35.4144 16.4355,19.99776 20.1284,48.55689 23.1115,74.13631 5.2859,45.3255 1.2699,135.12328 1.2699,135.12328 m -186.4211,-419.83032 1.0159,421.26201"
       inkscape:label="LetraH" /><text
       xml:space="preserve"
       transform="scale(0.26458333)"
       id="text27743"
       style="fill:none;stroke-width:113.38582677;stroke-dasharray:none;fill-opacity:1;stroke:#ec0a62;stroke-opacity:1;fill-rule:evenodd;stroke-linejoin:round;stroke-linecap:round;white-space:pre;shape-inside:url(#rect27745)" /></g></svg>
