<?xml version="1.0" encoding="UTF-8" standalone="no"?>
<svg
        width="1122.0687"
        height="426.06769"
        version="1.1"
        xml:space="preserve"
        id="svg1"
        xmlns="http://www.w3.org/2000/svg"
        xmlns:svg="http://www.w3.org/2000/svg">
 <defs
         id="defs2" />
    <g
            class="layer"
            id="g1"
            transform="translate(-708.81834,-207.29231)">
  <title
          id="title1">Layer 1</title>
        <g
                id="layer1">
   <path
           d="m 802.35834,295.23528 -93.54,30.88 82.32,213.31 38.78,-11.25 z m -15.66,16.29 26.64,210.08 -12.45,0.39 -75.03,-189.86 60.83,-20.6 z m 33.29,237.07 c -20.73,0 -37.54,15.36 -37.54,34.31 0,18.95 16.81,34.31 37.54,34.31 20.74,0 37.55,-15.36 37.55,-34.31 0,-18.95 -16.82,-34.31 -37.55,-34.31 z m -2.64,13.62 c 13.09,0.5 21.22,11.26 22.19,19.95 1.17,10.55 -1.37,18.79 -15.8,19.45 -14.77,0.49 -21.68,-12.2 -21.68,-20.94 0,-8.74 0.7,-17.31 15.3,-18.46 z"
           display="inline"
           fill="#230d57"
           id="path1022"
           stroke-width="0.26" />
            <g
                    id="g30204"
                    transform="translate(203.36834,-33.894724)">
    <text
            fill="#000000"
            fill-rule="evenodd"
            font-family="'Comic Sans MS'"
            font-size="70.56px"
            font-style="normal"
            font-weight="normal"
            id="text27751"
            stroke="#ec0a62"
            stroke-linecap="round"
            stroke-linejoin="round"
            stroke-width="0"
            transform="matrix(0.669687,0,0,0.657768,318.306,85.6207)"
            x="707.32001"
            xml:space="preserve"
            y="599.69">      <tspan
            fill="#000000"
            font-family="'Comic Sans MS'"
            font-size="70.56px"
            font-style="normal"
            font-weight="normal"
            id="tspan27749"
            stroke-width="0"
            x="707.32001"
            y="599.69">÷</tspan>    </text>
                <text
                        fill="#000000"
                        fill-rule="evenodd"
                        font-family="'Comic Sans MS'"
                        font-size="70.56px"
                        font-style="normal"
                        font-weight="normal"
                        id="text27751-3"
                        stroke="#ec0a62"
                        stroke-linecap="round"
                        stroke-linejoin="round"
                        stroke-width="0"
                        transform="matrix(0.669687,0,0,0.657768,318.306,85.6207)"
                        x="524.85999"
                        xml:space="preserve"
                        y="595.53003">      <tspan
                        id="tspan30190"
                        x="524.85999"
                        y="595.53003">π</tspan>    </text>
                <text
                        fill="#000000"
                        fill-rule="evenodd"
                        font-family="'Comic Sans MS'"
                        font-size="70.56px"
                        font-style="normal"
                        font-weight="normal"
                        id="text27751-2"
                        stroke="#ec0a62"
                        stroke-linecap="round"
                        stroke-linejoin="round"
                        stroke-width="0"
                        transform="matrix(0.669687,0,0,0.657768,318.306,85.6207)"
                        x="616.20001"
                        xml:space="preserve"
                        y="534.31">      <tspan
                        id="tspan29823"
                        x="616.20001"
                        y="534.31">=</tspan>    </text>
                <text
                        fill="#000000"
                        fill-rule="evenodd"
                        font-family="'Comic Sans MS'"
                        font-size="70.56px"
                        font-style="normal"
                        font-weight="normal"
                        id="text27751-8"
                        stroke="#ec0a62"
                        stroke-linecap="round"
                        stroke-linejoin="round"
                        stroke-width="0"
                        transform="matrix(0.669687,0,0,0.657768,318.306,85.6207)"
                        x="706.52002"
                        xml:space="preserve"
                        y="535.32001">      <tspan
                        id="tspan30188"
                        x="706.52002"
                        y="535.32001">+</tspan>    </text>
                <text
                        fill="#000000"
                        fill-rule="evenodd"
                        font-family="'Comic Sans MS'"
                        font-size="70.56px"
                        font-style="normal"
                        font-weight="normal"
                        id="text27751-5"
                        stroke="#ec0a62"
                        stroke-linecap="round"
                        stroke-linejoin="round"
                        stroke-width="0"
                        transform="matrix(0.669687,0,0,0.657768,318.306,85.6207)"
                        x="525.87"
                        xml:space="preserve"
                        y="534.31">      <tspan
                        id="tspan29095"
                        x="525.87"
                        y="534.31">−</tspan>    </text>
                <text
                        fill="#000000"
                        fill-rule="evenodd"
                        font-family="'Comic Sans MS'"
                        font-size="81.14px"
                        font-style="normal"
                        font-weight="normal"
                        id="text27751-28"
                        stroke="#ec0a62"
                        stroke-linecap="round"
                        stroke-linejoin="round"
                        stroke-width="0"
                        transform="matrix(0.669687,0,0,0.657768,318.306,85.6207)"
                        x="618.70001"
                        xml:space="preserve"
                        y="469.07999">      <tspan
                        id="tspan28730"
                        x="618.70001"
                        y="469.07999">×</tspan>    </text>
   </g>
            <g
                    id="g27689"
                    transform="translate(203.36834,-33.894724)">
    <path
            d="m 703.25,602.36 c -3.91,0 -7.06,3.09 -7.06,6.93 0,3.84 3.15,6.93 7.06,6.93 h 91.91 c 3.91,0 7.06,-3.09 7.06,-6.93 0,-3.84 -3.15,-6.93 -7.06,-6.93 z m 0.25,17.33 c -3.91,0 -7.06,3.09 -7.06,6.93 0,3.83 3.15,6.93 7.06,6.93 h 91.91 c 3.91,0 7.06,-3.09 7.06,-6.93 0,-3.84 -3.15,-6.93 -7.06,-6.93 z m -0.52,18.04 c -3.91,0 -7.06,3.09 -7.06,6.93 0,3.84 3.15,6.93 7.06,6.93 h 91.91 c 3.9,0 7.05,-3.09 7.05,-6.93 0,-3.84 -3.15,-6.93 -7.05,-6.93 z m 45.44,17.54 c -20.02,0 -40.17,0.01 -40.65,0.05 0,0 1.13,12.21 40.95,11.93 39.81,-0.28 39.63,-11.96 39.63,-11.96 0,0 -19.91,-0.01 -39.93,-0.01 z"
            display="inline"
            fill="#000000"
            id="rect2694"
            stroke-width="0.25" />
                <path
                        d="m 743.18,308.06 c -1.52,0 -3.01,0.05 -4.45,0.14 -21.36,1.32 -29.99,1.58 -45.1,7.22 -15.1,5.64 -32.79,14.36 -45.28,27.94 -12.5,13.58 -24.85,28.01 -25.68,56.22 -0.59,20.06 -4.07,28.87 8.52,59.93 8.95,22.08 27.87,53.44 43.26,77.54 8.91,13.97 12.72,56.65 12.72,56.65 l 98.2,1.34 c 0,0 1.13,-14.92 3.8,-24.62 2.67,-9.69 6.46,-22.29 13.33,-33.64 5.56,-9.18 9.96,-19.38 15.87,-28.38 12.13,-18.46 25.19,-38.92 30.1,-60.15 5.88,-25.4 6.8,-52.52 -0.66,-73.7 -5.46,-15.5 -15.78,-31.18 -29.68,-40.34 -21.4,-14.1 -52.08,-26.21 -74.94,-26.15 z m -0.13,12.16 c 19.9,-0.06 38.63,6.16 58.38,17.2 13.39,7.48 23.33,21.93 30.64,34.87 4.53,8.01 9.27,26.11 9.51,36.95 0.21,9.17 -2.4,24.19 -6.69,36.71 -6.14,17.92 -14.37,34.22 -25.29,50.73 -4.55,6.88 -12.09,19.91 -16.94,28.24 -5.98,10.29 -11.93,21.63 -14.25,30.42 -2.32,8.78 -3.95,24.82 -3.95,24.82 l -72.86,1.53 c 0,0 -7.87,-41.91 -14.97,-52.37 -14.54,-21.38 -35.72,-56.06 -41.98,-72.44 -10.78,-28.22 -7.05,-35.51 -6.54,-53.7 0.72,-25.57 11.49,-38.64 22.37,-50.95 10.89,-12.31 26.29,-20.21 39.44,-25.32 13.16,-5.12 20.67,-5.35 39.28,-6.55 1.26,-0.08 2.55,-0.12 3.88,-0.12 z"
                        fill="#e4e152"
                        id="path3566-8-1"
                        stroke-width="0.3" />
                <path
                        d="m 751.46,307.83 c -1.53,0 -3.01,0.05 -4.45,0.14 -21.37,1.32 -30,1.58 -45.1,7.22 -15.1,5.65 -32.78,14.36 -45.28,27.94 -12.5,13.59 -24.85,28.01 -25.68,56.22 -0.59,20.06 -4.06,28.87 8.52,59.93 8.95,22.09 27.87,53.44 43.26,77.54 8.91,13.96 12.72,56.64 12.72,56.64 l 98.2,1.34 c 0,0 1.13,-14.92 3.8,-24.62 2.67,-9.69 6.46,-22.29 13.33,-33.64 5.56,-9.19 9.96,-19.39 15.87,-28.38 12.13,-18.46 25.19,-38.92 30.1,-60.15 5.88,-25.4 6.8,-52.52 -0.65,-73.7 -5.46,-15.5 -15.78,-31.18 -29.69,-40.34 -21.4,-14.1 -52.08,-26.21 -74.93,-26.15 z m -0.13,12.16 c 19.91,-0.06 38.63,6.16 58.38,17.2 13.38,7.48 23.33,21.93 30.63,34.87 4.53,8.01 9.27,26.11 9.51,36.95 0.21,9.17 -2.4,24.19 -6.69,36.72 -6.14,17.92 -14.37,34.22 -25.29,50.73 -4.55,6.87 -12.09,19.9 -16.94,28.23 -5.98,10.29 -11.93,21.63 -14.25,30.42 -2.32,8.78 -3.95,24.82 -3.95,24.82 l -72.86,1.53 c 0,0 -7.86,-41.91 -14.97,-52.37 -14.53,-21.38 -35.72,-56.06 -41.98,-72.44 -10.78,-28.22 -7.05,-35.51 -6.54,-53.69 0.72,-25.57 11.49,-38.64 22.37,-50.96 10.88,-12.31 26.28,-20.21 39.44,-25.32 13.15,-5.12 20.67,-5.35 39.27,-6.54 1.26,-0.09 2.55,-0.12 3.88,-0.13 z"
                        fill="#000000"
                        id="path3566-8"
                        stroke-width="0.3" />
                <path
                        d="m 734.24,582.62 c 0,0 -10.23,-18.93 -13.57,-29.08 -2.56,-7.79 -4.23,-15.92 -4.88,-24.09 -0.68,-8.76 -0.76,-17.75 1.15,-26.34 2.07,-9.3 4.31,-19.56 11,-26.44 1.65,-1.69 4.12,-3.1 6.5,-2.95 2.89,0.18 5.86,2.1 7.34,4.55 6.42,10.58 12.95,26.78 13.29,41.18 0.25,10.66 -5.69,25.59 -8.39,30.89 -1.29,2.53 -9.66,-20.12 -10.2,-30.95 -0.49,-9.71 2.25,-22.32 6.34,-28.49 0.9,-1.36 7.19,-18.23 14.7,-17.1 15.96,2.42 17.3,28.12 18.63,43.93 0.92,11.02 -3.7,30.3 -7.92,44.91 -1.95,6.74 -9.18,20.29 -7.98,19.51"
                        display="inline"
                        fill="none"
                        fill-opacity="0.02"
                        id="path5280"
                        stroke="#000000"
                        stroke-width="4" />
                <path
                        d="m 855.21,279.22 -23.65,33.5 c -1.16,1.64 -3.43,2.02 -5.08,0.85 -1.65,-1.18 -2.04,-3.46 -0.88,-5.1 l 23.65,-33.5 c 1.16,-1.64 3.43,-2.03 5.08,-0.85 1.65,1.18 2.04,3.46 0.88,5.1 z m -51.37,-25.12 -11.82,39.07 c -0.58,1.92 -2.61,2.97 -4.56,2.36 -1.94,-0.61 -3.04,-2.65 -2.46,-4.57 l 11.83,-39.06 c 0.58,-1.92 2.62,-2.98 4.56,-2.36 1.94,0.61 3.03,2.65 2.45,4.57 z m -56.85,-8.96 -0.79,40.75 c -0.04,2 -1.71,3.55 -3.75,3.47 -2.04,-0.08 -3.64,-1.76 -3.61,-3.77 l 0.79,-40.75 c 0.03,-2 1.71,-3.55 3.75,-3.46 2.04,0.08 3.65,1.76 3.61,3.76 z m -56.47,9.97 12.31,38.92 c 0.61,1.91 -0.49,3.9 -2.45,4.45 -1.97,0.56 -4.03,-0.54 -4.64,-2.46 l -12.31,-38.93 c -0.61,-1.91 0.49,-3.9 2.45,-4.45 1.96,-0.56 4.03,0.54 4.63,2.46 z m -53.49,23.59 22.91,33.98 c 1.13,1.67 0.65,3.87 -1.08,4.94 -1.72,1.07 -4.02,0.58 -5.15,-1.09 L 630.8,282.55 c -1.13,-1.67 -0.65,-3.87 1.08,-4.94 1.72,-1.07 4.02,-0.58 5.15,1.09 z"
                        display="inline"
                        fill="#e4e152"
                        fill-rule="evenodd"
                        id="rect7361-5-7-1-6-3"
                        stroke-width="3.49" />
                <path
                        d="m 859.03,280.11 -23.64,33.49 c -1.16,1.65 -3.43,2.02 -5.08,0.85 -1.65,-1.18 -2.05,-3.45 -0.88,-5.1 l 23.64,-33.49 c 1.16,-1.65 3.43,-2.03 5.08,-0.85 1.65,1.18 2.05,3.45 0.88,5.1 z m -52.1,-25.1 -11.83,39.06 c -0.58,1.93 -2.62,2.98 -4.55,2.37 -1.94,-0.62 -3.04,-2.66 -2.46,-4.57 l 11.83,-39.07 c 0.58,-1.92 2.61,-2.97 4.55,-2.36 1.94,0.62 3.04,2.65 2.46,4.57 z m -55.41,-10.06 -0.79,40.75 c -0.04,2 -1.71,3.55 -3.75,3.47 -2.04,-0.08 -3.65,-1.76 -3.61,-3.76 l 0.79,-40.75 c 0.04,-2 1.71,-3.55 3.75,-3.47 2.04,0.08 3.64,1.76 3.61,3.76 z m -57.6,8.85 12.31,38.92 c 0.61,1.92 -0.48,3.91 -2.45,4.46 -1.96,0.55 -4.03,-0.55 -4.63,-2.46 L 686.84,255.8 c -0.6,-1.92 0.49,-3.9 2.45,-4.45 1.96,-0.56 4.02,0.55 4.63,2.46 z m -53.03,22.33 22.91,33.98 c 1.13,1.67 0.65,3.87 -1.08,4.94 -1.72,1.07 -4.02,0.58 -5.15,-1.08 l -22.91,-33.98 c -1.13,-1.67 -0.64,-3.88 1.08,-4.95 1.73,-1.07 4.02,-0.58 5.15,1.09 z"
                        fill-opacity="0.93"
                        id="rect7361-5-7-1-6"
                        stroke-width="3.49" />
   </g>
            <path
                    d="m 1092.6783,578.83528 1.02,-267.28 104.6,98.49 106.31,-103.16 0.51,276.41"
                    fill="none"
                    fill-rule="evenodd"
                    id="path20358"
                    stroke="#ef8a28"
                    stroke-linecap="round"
                    stroke-linejoin="round"
                    stroke-width="30" />
            <path
                    d="m 1351.8083,579.87528 0.48,-273.55 c 0,0 94.45,-8.15 97.29,47.3 2.46,48.17 -83.33,88.28 -83.33,88.28 0,0 67.37,1.18 92.5,17.99 18.66,12.48 23.59,38.53 30.14,59.75 6.3,20.44 5.5,57.43 5.5,57.43"
                    fill="none"
                    fill-rule="evenodd"
                    id="path23265"
                    stroke="#14b156"
                    stroke-linecap="round"
                    stroke-linejoin="round"
                    stroke-width="30" />
            <path
                    d="m 1626.5783,306.12528 c 0,0 -118.09,5.01 -116.9,145.2 1.27,149.63 158.51,136.49 151.54,130.05"
                    fill="none"
                    fill-rule="evenodd"
                    id="path26249"
                    stroke="#7c82e7"
                    stroke-linecap="round"
                    stroke-linejoin="round"
                    stroke-width="30" />
            <path
                    d="m 1698.6483,444.20528 c 0,0 24.83,-20.61 56.13,-22.29 15.97,-0.86 33.18,10.72 43.71,23.29 11,13.16 13.47,31.94 15.48,48.77 3.54,29.82 0.85,88.88 0.85,88.88 m -124.84,-276.15 0.68,277.09"
                    fill="none"
                    fill-rule="evenodd"
                    id="path27390"
                    stroke="#ec0a62"
                    stroke-linecap="round"
                    stroke-linejoin="round"
                    stroke-width="30" />

  </g>
 </g>
</svg>
